<?xml version="1.0" ?><svg viewBox="0 0 24 24" xmlns="http://www.w3.org/2000/svg"><defs><style>.cls-1{fill:none;}.cls-2{fill:#008696;}.cls-3{fill:#fff;}</style></defs><title/><g data-name="Layer 2" id="Layer_2"><g data-name="Layer 3" id="Layer_3"><rect class="cls-1" height="24" width="24"/><path class="cls-2" d="M1,12C1,4,4,1,12,1S23,4,23,12,20,23,12,23,1,20,1,12"/><path class="cls-3" d="M17.88,6.72H6.12A1.92,1.92,0,0,0,4.2,8.64v6.72a1.92,1.92,0,0,0,1.92,1.92H8.67a2.39,2.39,0,0,0,2.13-1.14c.67-1.47.84-1.68,1.2-1.68s.53.21,1.2,1.68a2.39,2.39,0,0,0,2.13,1.14h2.55a1.92,1.92,0,0,0,1.92-1.92V8.64A1.92,1.92,0,0,0,17.88,6.72ZM8.52,13.56A1.56,1.56,0,1,1,10.08,12,1.56,1.56,0,0,1,8.52,13.56Zm7,0A1.56,1.56,0,1,1,17,12,1.56,1.56,0,0,1,15.48,13.56Z"/></g></g></svg>